
<svg xmlns="http://www.w3.org/2000/svg" width="1280" height="720" viewBox="0 0 1280 720">
  <defs>
    <linearGradient id="bg" x1="0%" y1="0%" x2="100%" y2="100%">
      <stop offset="0%" stop-color="#FF4D6D" />
      <stop offset="45%" stop-color="#FF8A00" />
      <stop offset="100%" stop-color="#6A1B9A" />
    </linearGradient>
    <linearGradient id="panel" x1="0%" y1="0%" x2="100%" y2="100%">
      <stop offset="0%" stop-color="#ffffff" stop-opacity="0.96" />
      <stop offset="100%" stop-color="#f8fafc" stop-opacity="0.92" />
    </linearGradient>
    <radialGradient id="orb" cx="50%" cy="50%" r="50%">
      <stop offset="0%" stop-color="#ffffff" stop-opacity="0.95" />
      <stop offset="100%" stop-color="#ffffff" stop-opacity="0.05" />
    </radialGradient>
    <radialGradient id="orb2" cx="50%" cy="50%" r="50%">
      <stop offset="0%" stop-color="#ffffff" stop-opacity="0.85" />
      <stop offset="100%" stop-color="#ffffff" stop-opacity="0.05" />
    </radialGradient>
    <filter id="shadow" x="-20%" y="-20%" width="140%" height="140%">
      <feDropShadow dx="0" dy="24" stdDeviation="26" flood-color="#000000" flood-opacity="0.22"/>
    </filter>
  </defs>
  <rect x="0" y="0" width="1280" height="720" fill="url(#bg)"/>
  <rect x="60" y="60" width="1160" height="600" rx="42" fill="rgba(255,255,255,0.12)" stroke="rgba(255,255,255,0.35)" stroke-width="2"/>
  <g opacity="0.24"><path d="M140 520C320 330 560 260 760 320C900 360 1040 470 1110 560" stroke="#ffffff" stroke-width="10" fill="none" stroke-linecap="round"/><rect x="170" y="140" width="240" height="180" rx="30" fill="#ffffff"/><rect x="900" y="170" width="180" height="180" rx="30" fill="#ffffff"/></g>
  <rect x="120" y="120" width="1040" height="480" rx="34" fill="url(#panel)" filter="url(#shadow)"/>
  <rect x="150" y="150" width="280" height="10" rx="5" fill="#FF4D6D"/>
  <rect x="150" y="178" width="200" height="10" rx="5" fill="#FF8A00" opacity="0.7"/>
  <circle cx="1040" cy="220" r="110" fill="#FF4D6D" opacity="0.16"/>
  <circle cx="1040" cy="220" r="72" fill="#FF8A00" opacity="0.22"/>
  <text x="170" y="300" font-family="Inter, Arial, sans-serif" font-size="56" font-weight="800" fill="#111827"><tspan x="170" dy="0">Learn AI in 2026</tspan></text>
  <rect x="170" y="430" width="360" height="54" rx="27" fill="#6A1B9A"/>
  <text x="190" y="468" font-family="Inter, Arial, sans-serif" font-size="26" font-weight="700" fill="#ffffff">bold cinematic glow</text>
  <rect x="170" y="500" width="299" height="44" rx="22" fill="#ffffff" stroke="#FF4D6D" stroke-width="2"/>
  <text x="190" y="530" font-family="Inter, Arial, sans-serif" font-size="22" font-weight="600" fill="#111827">add human with laptop</text>
  <text x="1060" y="600" font-family="Inter, Arial, sans-serif" font-size="28" font-weight="700" fill="#6A1B9A" text-anchor="end">centered premium composition</text>
</svg>